<svg xmlns="http://www.w3.org/2000/svg" viewBox="0 0 300 600" fill="none">
  <!-- Main leaf body, mirrored -->
  <path d="M 240 580 C 280 480 310 380 285 280 C 260 180 210 120 160 70 C 120 30 90 10 80 20 C 70 30 80 60 100 100 C 130 155 170 200 190 270 C 215 355 210 450 190 560 Z" fill="#8A9A41"/>
  <!-- Secondary leaf lobe -->
  <path d="M 240 580 C 220 500 170 430 140 360 C 115 300 110 240 125 180 C 140 120 170 85 180 75 C 190 65 205 80 215 110 C 235 165 250 240 255 320 C 265 410 260 500 240 580 Z" fill="#6b7a30" opacity="0.4"/>
  <!-- Vein lines -->
  <path d="M 240 580 C 210 480 180 380 170 280" stroke="#2C2F24" stroke-width="1.5" stroke-opacity="0.15" fill="none"/>
  <path d="M 210 400 C 180 370 150 340 145 300" stroke="#2C2F24" stroke-width="1" stroke-opacity="0.1" fill="none"/>
  <path d="M 225 470 C 195 440 170 400 160 360" stroke="#2C2F24" stroke-width="1" stroke-opacity="0.1" fill="none"/>
  <path d="M 200 330 C 175 305 155 270 152 240" stroke="#2C2F24" stroke-width="0.8" stroke-opacity="0.08" fill="none"/>
</svg>
